<svg width="23" height="25" viewBox="0 0 23 25" fill="none" xmlns="http://www.w3.org/2000/svg">
<path fill-rule="evenodd" clip-rule="evenodd" d="M11.6703 13.3409C10.747 13.3409 10 12.5931 10 11.6705C10 10.7485 10.747 10 11.6703 10C12.5933 10 13.3409 10.7485 13.3409 11.6705C13.3409 12.5931 12.5933 13.3409 11.6703 13.3409ZM11.4472 0C5.06747 0 0 4.28679 0 9.57442C0 16.7826 9.6954 24.2312 9.6954 24.2312C10.9998 25.2157 11.8101 25.296 13.1969 24.2312C13.1969 24.2312 23 16.7826 23 9.57442C23 4.28679 17.8265 0 11.4472 0Z" fill="#F55A5A"/>
</svg>
